<svg version="1.1" xmlns="http://www.w3.org/2000/svg" xmlns:xlink="http://www.w3.org/1999/xlink" width="20.87" height="20.88" viewBox="0,0,20.87,20.88"><g transform="translate(-309.565,-169.56)"><g data-paper-data="{&quot;isPaintingLayer&quot;:true}" fill-rule="nonzero" stroke-linecap="butt" stroke-linejoin="miter" stroke-miterlimit="10" stroke-dasharray="" stroke-dashoffset="0" style="mix-blend-mode: normal"><path d="M327.805,169.81c1.29897,-0.00018 2.35817,1.04121 2.38,2.34v15.66c0,1.31444 -1.06556,2.38 -2.38,2.38h-15.61c-1.31444,0 -2.38,-1.06556 -2.38,-2.38v-15.63c0.00551,-1.31053 1.06946,-2.37001 2.38,-2.37h15.61" fill="#5a6978" stroke="#074574" stroke-width="0.5"/><path d="M324.295,180.36998l-2.16,2.1l0.51,3l-2.66,-1.4l-2.67,1.4l0.51,-3l-2.16,-2.1l3,-0.44l1.34,-2.7l1.19,2.43c-1.16,0.61 -2.18,1.15 -2.34,1.28c-0.39,0.31 -0.35,1.01 0.1,1.57c0.45,0.56 1.13,0.76 1.52,0.45c0.2,-0.16 1.34,-1.51 2.43,-2.8z" fill="#ffffff" stroke="none" stroke-width="1"/><path d="M320.415,182.41998c-0.22165,0.24861 -0.57043,0.34064 -0.88588,0.23377c-0.31545,-0.10688 -0.53645,-0.39198 -0.56133,-0.72412c-0.02488,-0.33213 0.1512,-0.64697 0.44721,-0.79965c0.36,-0.28 5.31,-3.19 5.31,-3.19c0,0 -3.92,4.19 -4.28,4.48" fill="#ffffff" stroke="none" stroke-width="1"/><path d="M325.535,185.81c-0.10056,0.00072 -0.1987,-0.03082 -0.28,-0.09c-0.10794,-0.0728 -0.18167,-0.18632 -0.2043,-0.31454c-0.02263,-0.12822 0.00779,-0.26012 0.0843,-0.36547c0.74784,-1.05844 1.1464,-2.32404 1.14,-3.62c-0.1347,-3.37908 -2.91324,-6.04905 -6.295,-6.04905c-3.38176,0 -6.16029,2.66997 -6.295,6.04905c-0.0042,1.27558 0.38325,2.52169 1.11,3.57c0.15161,0.22373 0.09345,0.52797 -0.13,0.68c-0.10534,0.0765 -0.23725,0.10693 -0.36546,0.08431c-0.12822,-0.02263 -0.24174,-0.09636 -0.31454,-0.20431c-1.78084,-2.57824 -1.71211,-6.00677 0.17062,-8.51156c1.88274,-2.5048 5.15703,-3.52386 8.12868,-2.52988c2.97165,0.99398 4.97389,3.77796 4.9707,6.91144c0.00782,1.49707 -0.45382,2.95893 -1.32,4.18c-0.08741,0.13517 -0.23911,0.21481 -0.4,0.21" fill="#ffffff" stroke="none" stroke-width="1"/><path d="M314.255,182h-1c-0.27614,0 -0.5,-0.22386 -0.5,-0.5c0,-0.27614 0.22386,-0.5 0.5,-0.5h1c0.27614,0 0.5,0.22386 0.5,0.5c0,0.27614 -0.22386,0.5 -0.5,0.5" fill="#ffffff" stroke="none" stroke-width="1"/><path d="M315.875,177.95999c-0.12965,0.00132 -0.25357,-0.05335 -0.34,-0.15l-0.72,-0.71c-0.09407,-0.09216 -0.14707,-0.21831 -0.14707,-0.35c0,-0.13169 0.05301,-0.25784 0.14707,-0.35c0.19442,-0.19057 0.50558,-0.19057 0.7,0l0.72,0.71c0.14317,0.14023 0.18652,0.35352 0.10944,0.53852c-0.07708,0.18499 -0.25904,0.3044 -0.45943,0.30148" fill="#ffffff" stroke="none" stroke-width="1"/><path d="M319.965,176.23998c-0.12903,0.00269 -0.2537,-0.04669 -0.34589,-0.137c-0.09219,-0.09031 -0.14414,-0.21394 -0.14411,-0.343v-1c-0.00269,-0.12903 0.0467,-0.25371 0.13701,-0.3459c0.09031,-0.09219 0.21394,-0.14414 0.34299,-0.1441v0c0.26676,-0.00006 0.48456,0.2133 0.49,0.48v1c0.00545,0.13073 -0.0427,0.25802 -0.13331,0.35241c-0.09062,0.09439 -0.21584,0.1477 -0.34669,0.14759z" fill="#ffffff" stroke="none" stroke-width="1"/><path d="M324.025,178.02999c-0.12564,0.00092 -0.24702,-0.04548 -0.34,-0.13c-0.09407,-0.09216 -0.14707,-0.21831 -0.14707,-0.35c0,-0.13169 0.05301,-0.25784 0.14707,-0.35l0.7,-0.73c0.09043,-0.09348 0.21493,-0.14627 0.345,-0.14627c0.13007,0 0.25457,0.05279 0.345,0.14627c0.18939,0.19101 0.18939,0.49899 0,0.69l-0.7,0.73c-0.09539,0.09572 -0.22487,0.14967 -0.36,0.15" fill="#ffffff" stroke="none" stroke-width="1"/><path d="M325.715,182.02999c-0.27614,0 -0.5,-0.22386 -0.5,-0.5c0,-0.27614 0.22386,-0.5 0.5,-0.5h1c0.13166,-0.0054 0.25997,0.04245 0.35593,0.13277c0.09596,0.09032 0.15149,0.21547 0.15407,0.34723c0.00567,0.27238 -0.20777,0.49916 -0.48,0.51h-1v0" fill="#ffffff" stroke="none" stroke-width="1"/></g></g></svg>