<svg version="1.1" xmlns="http://www.w3.org/2000/svg" xmlns:xlink="http://www.w3.org/1999/xlink" width="20.87" height="20.88" viewBox="0,0,20.87,20.88"><g transform="translate(-309.565,-169.56)"><g data-paper-data="{&quot;isPaintingLayer&quot;:true}" fill-rule="nonzero" stroke-linecap="butt" stroke-linejoin="miter" stroke-miterlimit="10" stroke-dasharray="" stroke-dashoffset="0" style="mix-blend-mode: normal"><path d="M327.805,169.81c1.29897,-0.00018 2.35817,1.04121 2.38,2.34v15.66c0,1.31444 -1.06556,2.38 -2.38,2.38h-15.61c-1.31444,0 -2.38,-1.06556 -2.38,-2.38v-15.63c0.00551,-1.31053 1.06946,-2.37001 2.38,-2.37h15.61" fill="#5a6978" stroke="#074574" stroke-width="0.5"/><path d="M321.215,179.58004c-0.0576,-0.13596 -0.14272,-0.25853 -0.25,-0.36c-0.10542,-0.10971 -0.23106,-0.198 -0.37,-0.26c-0.12876,-0.05867 -0.26851,-0.08934 -0.41,-0.09c-0.20342,0.00314 -0.4041,0.04736 -0.59,0.13c-0.25,0.12 -0.47,0.26 -0.66,0.37l-0.24,0.12h-0.15v0c-0.0318,-0.01204 -0.05953,-0.03285 -0.08,-0.06c-0.0287,-0.02542 -0.05243,-0.05593 -0.07,-0.09c-0.00554,-0.04316 -0.00554,-0.08685 0,-0.13c-0.01051,-0.05282 -0.01051,-0.10718 0,-0.16c0.04375,-0.08542 0.10117,-0.16311 0.17,-0.23c0.08839,-0.095 0.19346,-0.17296 0.31,-0.23c0.06349,-0.03817 0.13594,-0.05887 0.21,-0.06h0.09c0.03449,0.01692 0.06512,0.04074 0.09,0.07l0.59,-0.58c-0.09815,-0.10412 -0.21751,-0.18596 -0.35,-0.24c-0.13183,-0.06007 -0.27513,-0.09078 -0.42,-0.09c-0.19819,0.0026 -0.39316,0.05049 -0.57,0.14l-0.16,0.08l-0.26,-0.26l-0.58,0.58l0.25,0.25c-0.0474,0.06551 -0.08763,0.13591 -0.12,0.21c-0.16027,0.31407 -0.16027,0.68593 0,1c0.05233,0.12802 0.13064,0.24379 0.23,0.34c0.09634,0.09726 0.20779,0.17831 0.33,0.24c0.12079,0.04941 0.24954,0.07651 0.38,0.08c0.19772,-0.00617 0.39193,-0.05387 0.57,-0.14c0.25,-0.12 0.46,-0.26 0.65,-0.36c0.07687,-0.05227 0.16114,-0.09272 0.25,-0.12c0.05624,-0.00991 0.11377,-0.00991 0.17,0h0.09c0.04422,0.02392 0.08465,0.05425 0.12,0.09l0.08,0.11c0.00489,0.02644 0.00489,0.05356 0,0.08c-0.00145,0.07088 -0.02219,0.14002 -0.06,0.2c-0.06892,0.11146 -0.14936,0.21536 -0.24,0.31c-0.07088,0.06589 -0.15192,0.11991 -0.24,0.16c-0.05615,0.0108 -0.11385,0.0108 -0.17,0c-0.07987,0.00256 -0.15677,-0.0304 -0.21,-0.09l-0.59,0.58c0.20884,0.21213 0.49238,0.33416 0.79,0.34c0.18336,-0.00032 0.36438,-0.0413 0.53,-0.12c0.06745,-0.02903 0.13123,-0.06596 0.19,-0.11l0.25,0.26l0.59,-0.58l-0.26,-0.26l0.08,-0.12c0.10271,-0.18399 0.16093,-0.38948 0.17,-0.6c-0.00103,-0.14468 -0.03165,-0.28761 -0.09,-0.42M318.565,182.17003c-0.06219,-0.13338 -0.14674,-0.25514 -0.25,-0.36c-0.11735,-0.10162 -0.25315,-0.1797 -0.4,-0.23c-0.12951,-0.05524 -0.26923,-0.08249 -0.41,-0.08c-0.20074,-0.00168 -0.39918,0.0428 -0.58,0.13c-0.22727,0.10989 -0.44768,0.23345 -0.66,0.37l-0.25,0.12h-0.15v0l-0.08,-0.06c-0.02566,-0.02581 -0.04604,-0.05639 -0.06,-0.09c-0.0102,-0.04273 -0.0102,-0.08727 0,-0.13c-0.01051,-0.05282 -0.01051,-0.10719 0,-0.16c0.04456,-0.08758 0.1057,-0.16569 0.18,-0.23c0.08923,-0.09672 0.19401,-0.17785 0.31,-0.24c0.06583,-0.015 0.13417,-0.015 0.2,0h0.09c0.03841,0.01506 0.0727,0.03906 0.1,0.07l0.58,-0.58c-0.09525,-0.10296 -0.21109,-0.18473 -0.34,-0.24c-0.13556,-0.05942 -0.28199,-0.09006 -0.43,-0.09c-0.19786,-0.00474 -0.39376,0.03994 -0.57,0.13l-0.15,0.09l-0.26,-0.26l-0.59,0.58l0.25,0.25c-0.0474,0.06551 -0.08763,0.13591 -0.12,0.21c-0.07548,0.1557 -0.11317,0.327 -0.11,0.5c-0.00529,0.15495 0.02552,0.309 0.09,0.45c0.05644,0.12877 0.13419,0.2471 0.23,0.35c0.09621,0.09936 0.21198,0.17767 0.34,0.23c0.11868,0.05598 0.24883,0.08338 0.38,0.08c0.19686,-0.00419 0.39079,-0.04842 0.57,-0.13c0.24,-0.12 0.46,-0.26 0.64,-0.37c0.08252,-0.04578 0.16967,-0.08266 0.26,-0.11c0.05604,-0.01188 0.11396,-0.01188 0.17,0h0.08c0.04588,0.02124 0.08677,0.0519 0.12,0.09c0.03715,0.02776 0.06503,0.06611 0.08,0.11c0.00448,0.02648 0.00448,0.05352 0,0.08c-0.00781,0.07112 -0.03175,0.13953 -0.07,0.2c-0.06351,0.11214 -0.14454,0.21342 -0.24,0.3c-0.06286,0.07329 -0.14149,0.13141 -0.23,0.17c-0.05939,0.01212 -0.12061,0.01212 -0.18,0c-0.07987,0.00256 -0.15677,-0.0304 -0.21,-0.09l-0.58,0.58c0.19977,0.21463 0.47695,0.34062 0.77,0.35c0.18336,-0.00032 0.36438,-0.0413 0.53,-0.12l0.19,-0.11l0.25,0.26l0.59,-0.58l-0.26,-0.26l0.08,-0.12c0.10727,-0.18207 0.16581,-0.38871 0.17,-0.6c0.00392,-0.14413 -0.02336,-0.28741 -0.08,-0.42M325.745,173.28001l-0.09,2h-1.91c-0.30275,-0.31601 -0.72237,-0.49327 -1.16,-0.49c-0.43746,-0.00776 -0.85947,0.16176 -1.17,0.47c-0.46916,0.47201 -0.61106,1.17861 -0.36052,1.79516c0.25054,0.61656 0.84509,1.02387 1.51051,1.03484c0.43764,-0.0015 0.85741,-0.17372 1.17,-0.48h1.82l-0.08,1.76l-6.83,6.73c-0.64397,0.64207 -1.68603,0.64207 -2.33,0l-3.5,-3.52c-0.63781,-0.64961 -0.63781,-1.69039 0,-2.34l6.75,-6.74z" fill="#ffffff" stroke="none" stroke-width="1"/><path d="M327.665,176.04001v0.82h-4.42c-0.03765,0.0608 -0.08119,0.11774 -0.13,0.17c-0.15418,0.15697 -0.36497,0.24539 -0.585,0.24539c-0.22003,0 -0.43082,-0.08842 -0.585,-0.24539c-0.22719,-0.24047 -0.28988,-0.59289 -0.15957,-0.89696c0.13031,-0.30407 0.42876,-0.50172 0.75957,-0.50304c0.2192,0.00142 0.42846,0.09162 0.58,0.25c0.04874,0.04996 0.08924,0.10734 0.12,0.17z" fill="#ffffff" stroke="none" stroke-width="1"/></g></g></svg>