<svg version="1.1" xmlns="http://www.w3.org/2000/svg" xmlns:xlink="http://www.w3.org/1999/xlink" width="20.62" height="20.62" viewBox="0,0,20.62,20.62"><g transform="translate(-309.69,-169.69)"><g data-paper-data="{&quot;isPaintingLayer&quot;:true}" fill-rule="nonzero" stroke-linecap="butt" stroke-linejoin="miter" stroke-miterlimit="10" stroke-dasharray="" stroke-dashoffset="0" style="mix-blend-mode: normal"><g><path d="M327.805,169.815c1.31216,0.00548 2.37452,1.06784 2.38,2.38v15.61c-0.00548,1.31216 -1.06784,2.37452 -2.38,2.38h-15.61c-1.31216,-0.00548 -2.37452,-1.06784 -2.38,-2.38v-15.61c0.00548,-1.31216 1.06784,-2.37452 2.38,-2.38h15.61" fill="#ffffff" stroke="#1c75bc" stroke-width="0.25"/><path d="M314.275,182.36499c-0.47125,0.00011 -0.9223,0.19135 -1.25,0.53v-7.2c0.00549,-0.68645 0.56353,-1.24002 1.25,-1.24h1.18v7.91z" fill="#1c75bc" stroke="none" stroke-width="1"/><path d="M321.725,179.265c0.52659,-0.04462 1.03343,0.21107 1.31045,0.66111c0.27702,0.45004 0.27702,1.01773 0,1.46777c-0.27702,0.45004 -0.78386,0.70574 -1.31045,0.66111c-0.72478,-0.06142 -1.28178,-0.66763 -1.28178,-1.395c0,-0.72737 0.557,-1.33358 1.28178,-1.395" fill="#1c75bc" stroke="none" stroke-width="1"/><path d="M325.535,180.085c-0.00326,-0.12006 -0.09144,-0.22083 -0.21,-0.24l-0.83,-0.12c-0.04012,-0.13977 -0.09721,-0.27411 -0.17,-0.4l0.5,-0.66c0.0801,-0.08781 0.0801,-0.22219 0,-0.31l-0.81,-0.8c-0.0395,-0.04031 -0.09356,-0.06303 -0.15,-0.06303c-0.05644,0 -0.1105,0.02272 -0.15,0.06303l-0.67,0.5c-0.12628,-0.06951 -0.26062,-0.12325 -0.4,-0.16l-0.12,-0.83c-0.01405,-0.11897 -0.11052,-0.21124 -0.23,-0.22h-1.14c-0.12169,0.00797 -0.2215,0.09946 -0.24,0.22l-0.11,0.83c-0.14312,0.03501 -0.28099,0.08881 -0.41,0.16l-0.64,-0.47c-0.0845,-0.07876 -0.21551,-0.07876 -0.3,0l-0.81,0.81c-0.0702,0.08768 -0.0702,0.21232 0,0.3l0.5,0.67c-0.06928,0.12761 -0.1262,0.26156 -0.17,0.4l-0.83,0.12c-0.11699,0.01467 -0.20601,0.11216 -0.21,0.23v1.14c0.00326,0.12006 0.09144,0.22083 0.21,0.24l0.83,0.11c0.03828,0.14359 0.09545,0.28145 0.17,0.41l-0.5,0.66c-0.0801,0.08781 -0.0801,0.22219 0,0.31l0.81,0.8c0.08624,0.07419 0.21376,0.07419 0.3,0l0.67,-0.49c0.12628,0.06951 0.26062,0.12325 0.4,0.16l0.12,0.83c0.01467,0.117 0.11216,0.206 0.23,0.21h1.14c0.12005,-0.00326 0.22083,-0.09144 0.24,-0.21l0.11,-0.83c0.14312,-0.03501 0.28099,-0.08881 0.41,-0.16l0.66,0.49c0.03978,0.04352 0.09603,0.06831 0.155,0.06831c0.05897,0 0.11522,-0.02479 0.155,-0.06831l0.8,-0.8c0.04352,-0.03978 0.06832,-0.09604 0.06832,-0.155c0,-0.05897 -0.02479,-0.11522 -0.06832,-0.155l-0.52,-0.69c0.06928,-0.12761 0.1262,-0.26156 0.17,-0.4l0.83,-0.12c0.11699,-0.01467 0.20601,-0.11216 0.21,-0.23zM326.965,175.815v9.73h-12.68c-0.69036,0 -1.25,-0.55964 -1.25,-1.25v-0.18c0,-0.69036 0.55964,-1.25 1.25,-1.25h1.45c0.06367,-0.0026 0.12369,-0.03041 0.16684,-0.0773c0.04314,-0.0469 0.06587,-0.10903 0.06316,-0.1727v-6.87z" fill="#1c75bc" stroke="none" stroke-width="1"/></g></g></g></svg>