<svg version="1.1" xmlns="http://www.w3.org/2000/svg" xmlns:xlink="http://www.w3.org/1999/xlink" width="20.62" height="20.61" viewBox="0,0,20.62,20.61"><g transform="translate(-309.69,-169.695)"><g data-paper-data="{&quot;isPaintingLayer&quot;:true}" fill-rule="nonzero" stroke-linecap="butt" stroke-linejoin="miter" stroke-miterlimit="10" stroke-dasharray="" stroke-dashoffset="0" style="mix-blend-mode: normal"><path d="M327.805,169.82c1.31054,-0.00001 2.37449,1.05947 2.38,2.37v15.61c0,1.31444 -1.06556,2.38 -2.38,2.38h-15.61c-1.31444,0 -2.38,-1.06556 -2.38,-2.38v-15.61c0.00551,-1.31053 1.06946,-2.37001 2.38,-2.37h15.61" fill="#9a1717" stroke="#074574" stroke-width="0.25"/><path d="M321.235,179.65c-0.13011,-0.27362 -0.34849,-0.49552 -0.62,-0.63c-0.12951,-0.05523 -0.26923,-0.08249 -0.41,-0.08c-0.20342,0.00315 -0.4041,0.04736 -0.59,0.13c-0.25,0.12 -0.47,0.26 -0.66,0.37l-0.24,0.12h-0.15v0c-0.0318,-0.01204 -0.05954,-0.03285 -0.08,-0.06c-0.0287,-0.02541 -0.05243,-0.05593 -0.07,-0.09c-0.00555,-0.04316 -0.00555,-0.08684 0,-0.13c-0.01051,-0.05282 -0.01051,-0.10718 0,-0.16c0.04375,-0.08542 0.10117,-0.16312 0.17,-0.23c0.08839,-0.09499 0.19346,-0.17295 0.31,-0.23c0.06348,-0.03817 0.13593,-0.05887 0.21,-0.06h0.09c0.03679,0.01296 0.06838,0.03753 0.09,0.07l0.59,-0.58c-0.09815,-0.10412 -0.21751,-0.18596 -0.35,-0.24c-0.13183,-0.06007 -0.27513,-0.09078 -0.42,-0.09c-0.19689,0.0039 -0.39089,0.04815 -0.57,0.13l-0.16,0.09l-0.26,-0.26l-0.58,0.58l0.25,0.25c-0.0474,0.06551 -0.08763,0.13591 -0.12,0.21c-0.07723,0.15547 -0.11825,0.32641 -0.12,0.5c0.00118,0.15538 0.03526,0.30875 0.1,0.45c0.05286,0.13068 0.13103,0.24962 0.23,0.35c0.09635,0.09726 0.20778,0.17831 0.33,0.24c0.12079,0.04941 0.24954,0.07651 0.38,0.08c0.19772,-0.00617 0.39192,-0.05387 0.57,-0.14c0.25,-0.12 0.46,-0.26 0.65,-0.36c0.07687,-0.05227 0.16114,-0.09272 0.25,-0.12c0.05623,-0.00991 0.11377,-0.00991 0.17,0h0.09c0.04422,0.02392 0.08465,0.05425 0.12,0.09c0.03082,0.03346 0.05766,0.07037 0.08,0.11c0.00489,0.02644 0.00489,0.05356 0,0.08c-0.00145,0.07088 -0.02219,0.14003 -0.06,0.2c-0.06681,0.10987 -0.14747,0.2107 -0.24,0.3c-0.06833,0.07156 -0.14982,0.12928 -0.24,0.17c-0.05615,0.0108 -0.11385,0.0108 -0.17,0c-0.07987,0.00255 -0.15677,-0.0304 -0.21,-0.09l-0.59,0.58c0.20884,0.21213 0.49238,0.33416 0.79,0.34c0.18337,-0.00032 0.36438,-0.0413 0.53,-0.12l0.19,-0.11l0.25,0.26l0.59,-0.58l-0.26,-0.26l0.08,-0.12c0.10272,-0.18399 0.16094,-0.38947 0.17,-0.6c-0.00102,-0.14467 -0.03165,-0.28761 -0.09,-0.42M318.555,182.3c-0.06219,-0.13338 -0.14674,-0.25514 -0.25,-0.36c-0.10797,-0.11378 -0.23703,-0.20548 -0.38,-0.27c-0.12876,-0.05867 -0.26851,-0.08934 -0.41,-0.09c-0.20091,0.00624 -0.39837,0.0539 -0.58,0.14c-0.22928,0.10599 -0.44995,0.2297 -0.66,0.37c-0.08005,0.04373 -0.16368,0.08053 -0.25,0.11c-0.04957,0.00922 -0.10043,0.00922 -0.15,0v0l-0.08,-0.06c-0.02792,-0.02789 -0.04853,-0.06224 -0.06,-0.1c-0.01167,-0.03915 -0.01167,-0.08085 0,-0.12c-0.01051,-0.05282 -0.01051,-0.10718 0,-0.16c0.04457,-0.08758 0.10569,-0.16569 0.18,-0.23c0.08923,-0.09673 0.19401,-0.17785 0.31,-0.24c0.06582,-0.015 0.13418,-0.015 0.2,0h0.09l0.1,0.06l0.58,-0.57c-0.09426,-0.10657 -0.21017,-0.1918 -0.34,-0.25c-0.13757,-0.05153 -0.2831,-0.0786 -0.43,-0.08c-0.19785,-0.00474 -0.39377,0.03994 -0.57,0.13l-0.15,0.09l-0.26,-0.26l-0.59,0.58l0.25,0.25c-0.0451,0.06347 -0.08522,0.13034 -0.12,0.2c-0.07459,0.15955 -0.11219,0.33389 -0.11,0.51c-0.00529,0.15495 0.02552,0.309 0.09,0.45c0.05644,0.12877 0.1342,0.2471 0.23,0.35c0.09621,0.09935 0.21198,0.17767 0.34,0.23c0.11868,0.05598 0.24882,0.08338 0.38,0.08c0.19686,-0.00418 0.3908,-0.04842 0.57,-0.13c0.24,-0.12 0.46,-0.26 0.64,-0.37c0.08252,-0.04579 0.16968,-0.08266 0.26,-0.11c0.05604,-0.01188 0.11396,-0.01188 0.17,0c0.02588,-0.00915 0.05412,-0.00915 0.08,0c0.04797,0.01756 0.08971,0.04886 0.12,0.09c0.03715,0.02776 0.06503,0.06611 0.08,0.11c0.00448,0.02648 0.00448,0.05352 0,0.08c-0.00781,0.07113 -0.03175,0.13953 -0.07,0.2c-0.06351,0.11214 -0.14453,0.21342 -0.24,0.3c-0.06569,0.07019 -0.14363,0.1278 -0.23,0.17c-0.05939,0.01212 -0.12061,0.01212 -0.18,0c-0.07987,0.00255 -0.15677,-0.0304 -0.21,-0.09l-0.58,0.58c0.20387,0.21337 0.48492,0.33589 0.78,0.34c0.18337,-0.00032 0.36438,-0.0413 0.53,-0.12l0.19,-0.11l0.25,0.26l0.59,-0.58l-0.26,-0.26l0.08,-0.12c0.10727,-0.18208 0.16582,-0.38872 0.17,-0.6c0.00392,-0.14413 -0.02337,-0.2874 -0.08,-0.42M325.735,173.32l-0.09,2h-1.91c-0.3044,-0.31486 -0.72208,-0.4949 -1.16,-0.5c-0.43763,0.0015 -0.85741,0.17372 -1.17,0.48c-0.31084,0.30798 -0.48571,0.72742 -0.48571,1.165c0,0.43758 0.17487,0.85702 0.48571,1.165c0.30411,0.31404 0.72285,0.49093 1.16,0.49c0.43747,0.00776 0.85947,-0.16176 1.17,-0.47h1.82l-0.08,1.76l-6.83,6.73c-0.64397,0.64207 -1.68603,0.64207 -2.33,0l-3.5,-3.52c-0.63782,-0.64961 -0.63782,-1.69039 0,-2.34l6.74,-6.65z" fill="#ffffff" stroke="none" stroke-width="1"/><path d="M327.665,176.08v0.82h-4.42c-0.03765,0.06079 -0.0812,0.11773 -0.13,0.17c-0.15418,0.15697 -0.36498,0.24539 -0.585,0.24539c-0.22002,0 -0.43082,-0.08842 -0.585,-0.24539c-0.22719,-0.24047 -0.28989,-0.59289 -0.15957,-0.89696c0.13032,-0.30407 0.42876,-0.50172 0.75957,-0.50304c0.2192,0.00142 0.42846,0.09162 0.58,0.25c0.04874,0.04996 0.08924,0.10734 0.12,0.17z" fill="#ffffff" stroke="none" stroke-width="1"/></g></g></svg>