<svg version="1.1" xmlns="http://www.w3.org/2000/svg" xmlns:xlink="http://www.w3.org/1999/xlink" width="20.61002" height="20.61" viewBox="0,0,20.61002,20.61"><g transform="translate(-309.695,-169.695)"><g data-paper-data="{&quot;isPaintingLayer&quot;:true}" fill-rule="nonzero" stroke-linecap="butt" stroke-linejoin="miter" stroke-miterlimit="10" stroke-dasharray="" stroke-dashoffset="0" style="mix-blend-mode: normal"><g><path d="M327.81,169.82c0.6303,0 1.23464,0.25106 1.67939,0.69769c0.44475,0.44663 0.69327,1.05202 0.69061,1.68231v15.61c0,1.30892 -1.06108,2.37 -2.37,2.37h-15.62c-1.30892,0 -2.37,-1.06108 -2.37,-2.37v-15.61c-0.00266,-0.63029 0.24587,-1.23568 0.69062,-1.68231c0.44475,-0.44663 1.04908,-0.69769 1.67938,-0.69769h15.62" fill="#1c75bc" stroke="#1c75bc" stroke-width="0.25"/><path d="M314.68,179.99998c-0.80999,0.03164 -1.45472,0.68954 -1.47,1.5c-0.00541,0.03312 -0.00541,0.06688 0,0.1h-0.22v0c-0.5498,-0.01272 -1.09107,-0.13868 -1.59,-0.37h0.07v-0.32h-0.3l-0.12,-0.17v0c-0.00441,-0.53673 0.10464,-1.06834 0.32,-1.56h0.12c1.6,-0.09 4.63,0 5.27,0h0.64c0.08,0.34 0.14,0.77 0.14,0.77c-0.05455,0.08536 -0.05455,0.19464 0,0.28c0.11344,0.3707 0.1839,0.75321 0.21,1.14v0h-1.54c-0.0866,-0.77971 -0.7455,-1.3697 -1.53,-1.37" fill="#ffffff" stroke="none" stroke-width="1"/><path d="M324.22,181.58001c0.05705,-0.00024 0.10482,0.04318 0.11,0.1c0,0.06075 -0.04925,0.11 -0.11,0.11h-8c-0.06075,0 -0.11,-0.04925 -0.11,-0.11c0.00518,-0.05682 0.05295,-0.10023 0.11,-0.1h8" fill="#ffffff" stroke="none" stroke-width="1"/><path d="M314.68,182.54996c0.55228,0 1,-0.44771 1,-1c0,-0.55229 -0.44772,-1 -1,-1c-0.55228,0 -1,0.44771 -1,1c0,0.55229 0.44772,1 1,1M314.68,180.26001c0.71018,0.00544 1.28456,0.57982 1.29,1.29c0.00405,0.5276 -0.3112,1.00531 -0.79788,1.20909c-0.48667,0.20378 -1.04824,0.09319 -1.42132,-0.27989c-0.37308,-0.37308 -0.48367,-0.93465 -0.27989,-1.42132c0.20378,-0.48667 0.68149,-0.80192 1.20909,-0.79788" fill="#ffffff" stroke="none" stroke-width="1"/><path d="M314.68,182.23001c0.17944,0.00002 0.35139,-0.07194 0.47733,-0.19976c0.12594,-0.12782 0.19535,-0.30082 0.19267,-0.48024c-0.00003,-0.27594 -0.16681,-0.5245 -0.42214,-0.62914c-0.25533,-0.10464 -0.54858,-0.0446 -0.74224,0.15196c-0.19367,0.19656 -0.24935,0.49067 -0.14094,0.74442c0.10841,0.25375 0.35941,0.41683 0.63532,0.41277M314.68,180.73996c0.44735,0 0.81,0.36265 0.81,0.81c0.00404,0.33345 -0.19425,0.63612 -0.50155,0.7656c-0.3073,0.12948 -0.66242,0.05997 -0.89821,-0.17583c-0.2358,-0.2358 -0.30532,-0.59091 -0.17584,-0.89822c0.12948,-0.30731 0.43216,-0.50559 0.7656,-0.50155" fill="#ffffff" stroke="none" stroke-width="1"/><path d="M314.68,181.68998c0.0718,0 0.13,-0.0582 0.13,-0.13c0.00279,-0.03617 -0.00966,-0.07187 -0.03435,-0.09846c-0.02469,-0.02659 -0.05937,-0.04165 -0.09565,-0.04154c-0.07732,0 -0.14,0.06268 -0.14,0.14c-0.00011,0.03628 0.01495,0.07096 0.04154,0.09565c0.02659,0.02469 0.06228,0.03714 0.09846,0.03435M314.68,181.27001c0.15245,0.00517 0.27483,0.12756 0.28,0.28c0.00404,0.11902 -0.06509,0.22841 -0.17433,0.27584c-0.10924,0.04743 -0.23636,0.02326 -0.32056,-0.06095c-0.0842,-0.0842 -0.10838,-0.21133 -0.06095,-0.32057c0.04743,-0.10924 0.15681,-0.17837 0.27583,-0.17433" fill="#ffffff" stroke="none" stroke-width="1"/><path d="M325.85,182.54996c0.55228,0 1,-0.44771 1,-1c0,-0.55229 -0.44772,-1 -1,-1c-0.55228,0 -1,0.44771 -1,1c0,0.55229 0.44772,1 1,1M325.85,180.26001c0.71245,0 1.29,0.57755 1.29,1.29c0.00405,0.5276 -0.3112,1.00531 -0.79788,1.20909c-0.48667,0.20378 -1.04824,0.09319 -1.42132,-0.27989c-0.37308,-0.37308 -0.48367,-0.93465 -0.27989,-1.42132c0.20378,-0.48667 0.68149,-0.80192 1.20909,-0.79788" fill="#ffffff" stroke="none" stroke-width="1"/><path d="M325.85,182.23001c0.17944,0.00002 0.35139,-0.07194 0.47733,-0.19976c0.12594,-0.12782 0.19535,-0.30082 0.19267,-0.48024c-0.00003,-0.27594 -0.16681,-0.5245 -0.42214,-0.62914c-0.25533,-0.10464 -0.54858,-0.0446 -0.74225,0.15196c-0.19367,0.19656 -0.24935,0.49067 -0.14094,0.74442c0.10841,0.25375 0.35941,0.41683 0.63532,0.41277M325.85,180.73996c0.449,-0.00003 0.81453,0.36104 0.82,0.81c0.00405,0.33254 -0.19314,0.6346 -0.49921,0.76468c-0.30607,0.13008 -0.66039,0.06241 -0.89699,-0.1713c-0.2366,-0.23371 -0.3086,-0.58718 -0.1823,-0.89482c0.12631,-0.30764 0.42593,-0.50853 0.75849,-0.50856" fill="#ffffff" stroke="none" stroke-width="1"/><path d="M325.85,181.68998c0.03618,0.00279 0.07187,-0.00966 0.09846,-0.03435c0.02659,-0.02469 0.04165,-0.05936 0.04154,-0.09565c0,-0.07732 -0.06268,-0.14 -0.14,-0.14c-0.07732,0 -0.14,0.06268 -0.14,0.14c0.00525,0.07339 0.06642,0.13019 0.14,0.13M325.85,181.27001c0.15464,0 0.28,0.12536 0.28,0.28c0.00404,0.11902 -0.06509,0.22841 -0.17432,0.27584c-0.10924,0.04743 -0.23636,0.02326 -0.32057,-0.06095c-0.0842,-0.0842 -0.10838,-0.21133 -0.06095,-0.32057c0.04743,-0.10924 0.15682,-0.17837 0.27584,-0.17433" fill="#ffffff" stroke="none" stroke-width="1"/><path d="M328.79,180.84999c0.00919,-0.04284 0.00919,-0.08715 0,-0.13c-0.02887,-0.0591 -0.08495,-0.10023 -0.15,-0.11v0c-0.03312,0.00541 -0.06689,0.00541 -0.1,0h-0.07v0c-0.07959,0.01135 -0.16041,0.01135 -0.24,0v0h-0.14h-0.42c-0.13,0 -0.13,0.08 -0.13,0.08v0c0.04591,0.01185 0.09409,0.01185 0.14,0h1.13M322.37,178.98996c0.09,-0.04 0.22,-0.1 0.22,-0.16c-0.15,-0.08 -0.98,-0.71 -1.3,-1l-0.14,-0.13c-0.0549,-0.06184 -0.11513,-0.11872 -0.18,-0.17c-0.05629,0.07824 -0.13216,0.14031 -0.22,0.18l1.63,1.29M321.55,178.98996c0.56,0 0.44,-0.07 0.34,-0.16c-0.82,-0.72 -1.31,-1.28 -1.89,-1.28c-0.85,0 -2.84,0.07 -2.94,0.3c0.02569,0.39138 0.11346,0.77618 0.26,1.14h4.22M318.75,179.64997c0.03866,0 0.07,-0.03134 0.07,-0.07c0,-0.03866 -0.03134,-0.07 -0.07,-0.07h-0.68c-0.03866,0 -0.07,0.03134 -0.07,0.07c0,0.03866 0.03134,0.07 0.07,0.07h0.68M315,178.82c0.31,0 1.71,0 1.71,0c-0.0281,-0.28677 -0.07825,-0.57094 -0.15,-0.85c-0.67901,0.18064 -1.34683,0.40103 -2,0.66c-0.02,0.09 0.07,0.16 0.27,0.16h0.06h0.11M328.67,180.17996c0.07844,0.03818 0.14182,0.10156 0.18,0.18c0.04389,0.10562 0.04389,0.22438 0,0.33c-0.13898,0.23358 -0.30699,0.44862 -0.5,0.64c-0.33806,0.15613 -0.70781,0.23144 -1.08,0.22c0,0 0,-0.01 0,-0.11c0,-0.1 -0.06,-0.1 0,-0.1c-0.12306,-0.76605 -0.78413,-1.3294 -1.56,-1.3294c-0.77587,0 -1.43694,0.56335 -1.56,1.3294h-1.86c0.06525,-0.39686 0.10201,-0.79789 0.11,-1.2c-0.02676,-0.11175 -0.02676,-0.22825 0,-0.34c-0.02562,-0.20343 -0.06912,-0.4042 -0.13,-0.6h0.92c1.06,0.01 4.23,0.07 4.65,0.13c0.27414,0.05844 0.53736,0.15968 0.78,0.3v-0.08c-0.24298,-0.16252 -0.51436,-0.27786 -0.8,-0.34c-0.42,-0.06 -3.59,-0.13 -4.65,-0.13h-0.26h-0.66h-0.07v0h-2.28h2.26c0.06012,0.20958 0.10359,0.42358 0.13,0.64c-0.027,0.11848 -0.027,0.24152 0,0.36c0.02108,0.1961 0.02108,0.3939 0,0.59h-2c-0.06075,0 -0.11,0.04925 -0.11,0.11c0.00518,0.05682 0.05295,0.10023 0.11,0.1h2c-0.06,0.17 -0.06,0.33 -0.06,0.47c-1.31,0 -3.01,0 -4.48,0v0c-0.02258,-0.39955 -0.08965,-0.79533 -0.2,-1.18c-0.048,-0.09071 -0.048,-0.19929 0,-0.29c-0.03132,-0.26583 -0.07807,-0.5296 -0.14,-0.79h-0.77c-0.64,0 -3.51,-0.1 -5.14,0c0.09,-0.01 0.09,-0.35 1.48,-0.35l0.35,-0.11c0.30667,-0.1 0.64,-0.23 1,-0.39c0.69928,-0.30661 1.43041,-0.53467 2.18,-0.68c1.11865,-0.25307 2.26316,-0.3739 3.41,-0.36c0.36696,-0.01258 0.73126,0.06647 1.06,0.23v0c0.09857,0.06214 0.18923,0.13601 0.27,0.22l0.13,0.14c0.31,0.27 1.24,1 1.31,1v0l3.38,0.07c0.80701,-0.01044 1.61247,0.07347 2.4,0.25c0.32,0.09 0.38,0.29 0.38,0.38v0v0.1c-0.02,0.11 -0.1,0.29 -0.1,0.41l0.01,0.26v0c-0.0038,-0.03322 -0.0038,-0.06678 0,-0.1c0.03,-0.09 0.13,-0.37 0.13,-0.53v-0.1v0l0.15,0.09l-0.15,0.7h-0.07" fill="#ffffff" stroke="none" stroke-width="1"/><path d="M315.75,181.54996c-0.00002,0.44177 -0.26668,0.83984 -0.67521,1.00795c-0.40853,0.16811 -0.87814,0.07301 -1.18908,-0.24081c-0.31093,-0.31382 -0.40171,-0.78427 -0.22984,-1.19124c0.17187,-0.40697 0.57238,-0.66996 1.01413,-0.6659c0.28818,-0.00001 0.56441,0.11515 0.76724,0.31985c0.20283,0.2047 0.31543,0.48199 0.31276,0.77015" fill="#ffffff" stroke="none" stroke-width="1"/><path d="M326.94,181.54996c0,0.60199 -0.48801,1.09 -1.09,1.09c-0.60199,0 -1.09,-0.48801 -1.09,-1.09c0,-0.60199 0.48801,-1.09 1.09,-1.09c0.60199,0 1.09,0.48801 1.09,1.09" fill="#ffffff" stroke="none" stroke-width="1"/><path d="M316.12,181.67996l0.09,-0.35l0.13,-1.13l-1.76,-0.48l-3,1.56l-0.19,-0.1c-0.21294,-0.06885 -0.35795,-0.26621 -0.36,-0.49l0.32,-1.56l0.34,-0.11l5.6,-0.08l0.08,0.09h0.27l4.45,0.31l0.19,-0.27l5.74,0.1l0.91,0.34l-0.06,0.64l0.06,0.4v0.26l-1.28,0.26l-0.66,-0.86l-2.24,-0.43l-0.51,0.81v0.83v0.26z" fill="#ffffff" stroke="none" stroke-width="1"/></g></g></g></svg>