<svg version="1.1" xmlns="http://www.w3.org/2000/svg" xmlns:xlink="http://www.w3.org/1999/xlink" width="20.87" height="20.83" viewBox="0,0,20.87,20.83"><g transform="translate(-309.565,-169.585)"><g data-paper-data="{&quot;isPaintingLayer&quot;:true}" fill-rule="nonzero" stroke-linecap="butt" stroke-linejoin="miter" stroke-miterlimit="10" stroke-dasharray="" stroke-dashoffset="0" style="mix-blend-mode: normal"><path d="M327.805,169.835c1.29897,-0.00018 2.35817,1.04121 2.38,2.34v15.66c-0.02721,1.29487 -1.08484,2.33028 -2.38,2.33h-15.61c-1.29515,0.00028 -2.35279,-1.03513 -2.38,-2.33v-15.66c0.02183,-1.29879 1.08103,-2.34018 2.38,-2.34h15.61" fill="#5a6978" stroke="#074574" stroke-width="0.5"/><g fill="#fffcfc" stroke="none" stroke-width="1"><path d="M320.005,186.33505c-0.40869,0 -0.74,-0.33131 -0.74,-0.74v-11.22c-0.03307,-0.28306 0.09935,-0.55996 0.34044,-0.71192c0.24109,-0.15195 0.54803,-0.15195 0.78913,0c0.24109,0.15195 0.37351,0.42885 0.34044,0.71192v11.22c0.00004,0.40482 -0.32522,0.73453 -0.73,0.74"/><path d="M327.695,180.67504h-15.38c-0.28306,0.03307 -0.55996,-0.09934 -0.71191,-0.34044c-0.15195,-0.2411 -0.15195,-0.54803 0,-0.78913c0.15195,-0.2411 0.42885,-0.37351 0.71191,-0.34044h15.38c0.28306,-0.03307 0.55996,0.09934 0.71191,0.34044c0.15196,0.2411 0.15196,0.54803 0,0.78913c-0.15195,0.2411 -0.42885,0.37351 -0.71191,0.34044"/><path d="M325.405,176.835c0,0.74559 -0.60442,1.35 -1.35,1.35c-0.74559,0 -1.35,-0.60441 -1.35,-1.35c0,-0.74559 0.60442,-1.35 1.35,-1.35c0.35886,-0.00269 0.7038,0.13868 0.95756,0.39244c0.25376,0.25376 0.39513,0.5987 0.39244,0.95756"/><path d="M317.295,176.835c0,0.74559 -0.60442,1.35 -1.35,1.35c-0.74559,0 -1.35,-0.60441 -1.35,-1.35c0,-0.74559 0.60441,-1.35 1.35,-1.35c0.35886,-0.00269 0.7038,0.13868 0.95756,0.39244c0.25376,0.25376 0.39513,0.5987 0.39244,0.95756"/><path d="M325.405,183.22502c-0.02193,0.73998 -0.63571,1.32425 -1.37588,1.30974c-0.74016,-0.01451 -1.33056,-0.62241 -1.32347,-1.36268c0.00709,-0.74027 0.60904,-1.33673 1.34934,-1.33706c0.74559,0 1.35,0.60441 1.35,1.35"/><path d="M317.295,183.22502c-0.02193,0.73998 -0.63571,1.32425 -1.37588,1.30974c-0.74016,-0.01451 -1.33056,-0.62241 -1.32347,-1.36268c0.00709,-0.74027 0.60904,-1.33673 1.34934,-1.33706c0.36508,-0.00016 0.71467,0.14754 0.96902,0.40944c0.25435,0.2619 0.3918,0.61564 0.38098,0.98056"/></g></g></g></svg>