<svg version="1.1" xmlns="http://www.w3.org/2000/svg" xmlns:xlink="http://www.w3.org/1999/xlink" width="20.57" height="20.62" viewBox="0,0,20.57,20.62"><g transform="translate(-309.715,-169.69)"><g data-paper-data="{&quot;isPaintingLayer&quot;:true}" fill-rule="nonzero" stroke-linecap="butt" stroke-linejoin="miter" stroke-miterlimit="10" stroke-dasharray="" stroke-dashoffset="0" style="mix-blend-mode: normal"><g><path d="M327.82,169.815c1.29879,0.02183 2.34019,1.08102 2.34,2.38v15.61c0.00018,1.29897 -1.04121,2.35817 -2.34,2.38h-15.61c-1.31053,-0.0055 -2.37001,-1.06946 -2.37,-2.38v-15.61c-0.00001,-1.31054 1.05947,-2.37449 2.37,-2.38h15.61" fill="#ffffff" stroke="#1c75bc" stroke-width="0.25"/><path d="M321.47,179.915l-0.47,-1.77l1.51,-1.52l1.77,0.47z" fill="#1c75bc" stroke="none" stroke-width="1"/><path d="M324.64999,177.425l0.49,1.83l-1.52,1.51l-1.82,-0.49z" fill="#1c75bc" stroke="none" stroke-width="1"/><path d="M323.82,181.455l3.34,-3.34c0.11091,0.38795 0.178,0.7871 0.2,1.19l-3.38,3.39l-3.82,-1l-1,-3.87l3.39,-3.43c0.36962,0.02607 0.7352,0.09315 1.09,0.2l-3.34,3.34l0.74,2.76z" fill="#1c75bc" stroke="none" stroke-width="1"/><path d="M327.39999,180.045c-0.09497,1.62339 -0.93269,3.11245 -2.27083,4.03646c-1.33814,0.924 -3.02742,1.17986 -4.57916,0.69354l-0.83,0.83h-5l3.51,-3.5c0.09028,-0.0992 0.09028,-0.2508 0,-0.35c-0.04537,-0.04834 -0.1087,-0.07576 -0.175,-0.07576c-0.0663,0 -0.12964,0.02742 -0.175,0.07576l-3.86,3.85h-1.35l4.36,-4.35c-0.49388,-1.57081 -0.22666,-3.28211 0.72262,-4.62757c0.94928,-1.34546 2.4719,-2.17103 4.11739,-2.23243l-3.29,3.3l1.18,4.36l4.4,1.18z" fill="#1c75bc" stroke="none" stroke-width="1"/></g></g></g></svg>