<svg version="1.1" xmlns="http://www.w3.org/2000/svg" xmlns:xlink="http://www.w3.org/1999/xlink" width="20.62" height="20.61" viewBox="0,0,20.62,20.61"><g transform="translate(-309.69,-169.695)"><g data-paper-data="{&quot;isPaintingLayer&quot;:true}" fill-rule="nonzero" stroke-linecap="butt" stroke-linejoin="miter" stroke-miterlimit="10" stroke-dasharray="" stroke-dashoffset="0" style="mix-blend-mode: normal"><path d="M327.805,169.82c1.31054,-0.00001 2.37449,1.05947 2.38,2.37v15.61c0,1.31444 -1.06556,2.38 -2.38,2.38h-15.61c-1.31444,0 -2.38,-1.06556 -2.38,-2.38v-15.61c0.00551,-1.31053 1.06946,-2.37001 2.38,-2.37h15.61" fill="#9a1717" stroke="#074574" stroke-width="0.25"/><path d="M314.275,182.36c-0.47125,0.00011 -0.92229,0.19135 -1.25,0.53v-7.19c-0.00001,-0.33061 0.132,-0.64753 0.36672,-0.88037c0.23471,-0.23283 0.55269,-0.3623 0.88328,-0.35963h1.18v7.9z" fill="#ffffff" stroke="none" stroke-width="1"/><path d="M321.725,179.26c0.7732,0 1.4,0.6268 1.4,1.4c0,0.7732 -0.6268,1.4 -1.4,1.4c-0.7732,0 -1.4,-0.6268 -1.4,-1.4c0,-0.7732 0.6268,-1.4 1.4,-1.4" fill="#ffffff" stroke="none" stroke-width="1"/><path d="M325.525,180.09c-0.004,-0.11784 -0.093,-0.21533 -0.21,-0.23l-0.83,-0.12c-0.0401,-0.14296 -0.09717,-0.28061 -0.17,-0.41l0.5,-0.66c0.0801,-0.08781 0.0801,-0.22219 0,-0.31l-0.81,-0.8c-0.03797,-0.04305 -0.0926,-0.06771 -0.15,-0.06771c-0.0574,0 -0.11203,0.02466 -0.15,0.06771l-0.67,0.49c-0.12628,-0.06951 -0.26062,-0.12325 -0.4,-0.16l-0.12,-0.83c-0.01467,-0.117 -0.11216,-0.206 -0.23,-0.21h-1.14c-0.12006,0.00326 -0.22083,0.09144 -0.24,0.21l-0.11,0.83c-0.14313,0.03501 -0.28099,0.08881 -0.41,0.16l-0.64,-0.47c-0.08449,-0.07875 -0.21551,-0.07875 -0.3,0l-0.81,0.81c-0.06834,0.09203 -0.06834,0.21797 0,0.31l0.5,0.66c-0.06927,0.12762 -0.1262,0.26156 -0.17,0.4l-0.83,0.12c-0.11856,0.01917 -0.20674,0.11994 -0.21,0.24v1.11c0.00326,0.12006 0.09144,0.22083 0.21,0.24l0.83,0.12c0.04171,0.14715 0.1022,0.28831 0.18,0.42l-0.5,0.66c-0.0801,0.08781 -0.0801,0.22219 0,0.31l0.81,0.8c0.08768,0.0702 0.21232,0.0702 0.3,0l0.67,-0.5c0.12792,0.06865 0.2618,0.12555 0.4,0.17l0.12,0.82c0.01405,0.11897 0.11053,0.21124 0.23,0.22h1.14c0.1217,-0.00797 0.2215,-0.09945 0.24,-0.22l0.11,-0.82c0.14207,-0.04264 0.27944,-0.09959 0.41,-0.17l0.66,0.5c0.08578,0.08517 0.22422,0.08517 0.31,0l0.8,-0.8c0.04352,-0.03978 0.06831,-0.09603 0.06831,-0.155c0,-0.05897 -0.02479,-0.11522 -0.06831,-0.155l-0.52,-0.68c0.06762,-0.13186 0.12447,-0.26898 0.17,-0.41l0.83,-0.12c0.117,-0.01467 0.206,-0.11216 0.21,-0.23zM326.965,175.81v9.78h-12.69c-0.34227,-0.0022 -0.66867,-0.14466 -0.90302,-0.39413c-0.23435,-0.24947 -0.35615,-0.58413 -0.33698,-0.92587v-0.18c0,-0.69036 0.55964,-1.25 1.25,-1.25h1.45c0.06367,-0.0026 0.1237,-0.03041 0.16684,-0.07731c0.04314,-0.0469 0.06587,-0.10903 0.06316,-0.17269v-6.85z" fill="#ffffff" stroke="none" stroke-width="1"/></g></g></svg>