<svg version="1.1" xmlns="http://www.w3.org/2000/svg" xmlns:xlink="http://www.w3.org/1999/xlink" width="20.62" height="20.62" viewBox="0,0,20.62,20.62"><g transform="translate(-309.69,-169.69)"><g data-paper-data="{&quot;isPaintingLayer&quot;:true}" fill-rule="nonzero" stroke-linecap="butt" stroke-linejoin="miter" stroke-miterlimit="10" stroke-dasharray="" stroke-dashoffset="0" style="mix-blend-mode: normal"><g><path d="M327.805,169.815c1.31216,0.00548 2.37452,1.06784 2.38,2.38v15.61c-0.00548,1.31216 -1.06784,2.37452 -2.38,2.38h-15.61c-1.31216,-0.00548 -2.37452,-1.06784 -2.38,-2.38v-15.61c0.00548,-1.31216 1.06784,-2.37452 2.38,-2.38h15.61" fill="#ffffff" stroke="#1c75bc" stroke-width="0.25"/><path d="M321.265,179.625c-0.05568,-0.13701 -0.14107,-0.25996 -0.25,-0.36c-0.1024,-0.11565 -0.22863,-0.20776 -0.37,-0.27c-0.12876,-0.05867 -0.2685,-0.08935 -0.41,-0.09c-0.20411,0.00629 -0.40483,0.05392 -0.59,0.14c-0.22701,0.11039 -0.44738,0.23394 -0.66,0.37l-0.24,0.12h-0.15v0c-0.0318,-0.01204 -0.05953,-0.03285 -0.08,-0.06c-0.03094,-0.0273 -0.05494,-0.06159 -0.07,-0.1c-0.00653,-0.03973 -0.00653,-0.08026 0,-0.12c-0.01051,-0.05281 -0.01051,-0.10719 0,-0.16c0.04375,-0.08543 0.10117,-0.16311 0.17,-0.23c0.0913,-0.09445 0.1957,-0.17528 0.31,-0.24c0.06927,-0.01428 0.14073,-0.01428 0.21,0h0.09c0.03679,0.01296 0.06838,0.03753 0.09,0.07l0.57,-0.62c-0.10122,-0.10308 -0.21966,-0.18769 -0.35,-0.25c-0.31856,-0.14037 -0.68144,-0.14037 -1,0l-0.16,0.09l-0.26,-0.26l-0.58,0.58l0.25,0.25c-0.0451,0.06347 -0.08522,0.13034 -0.12,0.2c-0.07739,0.15897 -0.11838,0.3332 -0.12,0.51c0.00117,0.15538 0.03526,0.30875 0.1,0.45c0.05286,0.13068 0.13103,0.24962 0.23,0.35c0.09328,0.09822 0.20556,0.17647 0.33,0.23c0.11933,0.054 0.24902,0.0813 0.38,0.08c0.197,-0.00304 0.39117,-0.04732 0.57,-0.13c0.25,-0.12 0.46,-0.26 0.65,-0.37c0.07917,-0.04548 0.16298,-0.08235 0.25,-0.11c0.05624,-0.00991 0.11377,-0.00991 0.17,0c0.02929,-0.00921 0.0607,-0.00921 0.09,0c0.05782,0.04171 0.10005,0.10155 0.12,0.17c0.03082,0.03346 0.05766,0.07037 0.08,0.11c0.00489,0.02644 0.00489,0.05356 0,0.08c-0.00284,0.07066 -0.02348,0.13945 -0.06,0.2c-0.06681,0.10987 -0.14747,0.2107 -0.24,0.3c-0.07119,0.06818 -0.15206,0.12547 -0.24,0.17c-0.05615,0.0108 -0.11385,0.0108 -0.17,0c-0.07987,0.00256 -0.15677,-0.0304 -0.21,-0.09l-0.59,0.58c0.20884,0.21213 0.49238,0.33416 0.79,0.34c0.18336,-0.00032 0.36438,-0.0413 0.53,-0.12l0.19,-0.11l0.25,0.26l0.59,-0.58l-0.26,-0.26l0.08,-0.12c0.10271,-0.18399 0.16093,-0.38948 0.17,-0.6c0.00077,-0.14486 -0.02993,-0.28817 -0.09,-0.42M318.585,182.33496c-0.06205,-0.13645 -0.14656,-0.26152 -0.25,-0.37c-0.11084,-0.10779 -0.23938,-0.19574 -0.38,-0.26c-0.12876,-0.05867 -0.2685,-0.08935 -0.41,-0.09c-0.20153,0.00143 -0.40001,0.04934 -0.58,0.14c-0.22692,0.10686 -0.4473,0.22707 -0.66,0.36c-0.07794,0.05039 -0.16194,0.09071 -0.25,0.12c-0.04958,0.00922 -0.10043,0.00922 -0.15,0v0l-0.08,-0.06c-0.02578,-0.02951 -0.04609,-0.06337 -0.06,-0.1c-0.009,-0.03949 -0.009,-0.08051 0,-0.12c-0.01167,-0.05269 -0.01167,-0.1073 0,-0.16c0.0439,-0.09089 0.10503,-0.1724 0.18,-0.24c0.09187,-0.09101 0.19626,-0.16846 0.31,-0.23c0.0619,-0.03192 0.13036,-0.04904 0.2,-0.05h0.09l0.1,0.06l0.58,-0.58c-0.09794,-0.09984 -0.21313,-0.18115 -0.34,-0.24c-0.13702,-0.05475 -0.28253,-0.08521 -0.43,-0.09c-0.19806,0.00364 -0.39279,0.05147 -0.57,0.14l-0.15,0.09l-0.26,-0.26l-0.59,0.58l0.25,0.25c-0.04724,0.06205 -0.08748,0.12912 -0.12,0.2c-0.07344,0.1564 -0.11103,0.32722 -0.11,0.5c-0.00687,0.1583 0.02398,0.31596 0.09,0.46c0.05644,0.12877 0.1342,0.2471 0.23,0.35c0.09621,0.09936 0.21198,0.17767 0.34,0.23c0.11868,0.05598 0.24883,0.08338 0.38,0.08c0.19819,-0.0026 0.39315,-0.05049 0.57,-0.14c0.22037,-0.10704 0.43409,-0.22726 0.64,-0.36l0.26,-0.12h0.17c0.02588,-0.00915 0.05412,-0.00915 0.08,0c0.09053,0.03755 0.16245,0.10948 0.2,0.2c0.00448,0.02648 0.00448,0.05352 0,0.08c-0.00781,0.07112 -0.03175,0.13953 -0.07,0.2c-0.06604,0.11041 -0.14678,0.21133 -0.24,0.3c-0.06568,0.07019 -0.14363,0.1278 -0.23,0.17c-0.05939,0.01212 -0.12061,0.01212 -0.18,0c-0.07913,-0.00113 -0.15461,-0.03348 -0.21,-0.09l-0.58,0.58c0.20489,0.21064 0.48614,0.32964 0.78,0.33c0.18264,0.00314 0.3637,-0.03443 0.53,-0.11l0.19,-0.11l0.25,0.26l0.59,-0.58l-0.26,-0.26l0.08,-0.12c0.1085,-0.18519 0.16709,-0.39538 0.17,-0.61c0.0025,-0.14077 -0.02477,-0.28049 -0.08,-0.41M325.685,173.365l-0.09,2h-1.9v0c-0.30798,-0.31085 -0.72742,-0.48571 -1.165,-0.48571c-0.43758,0 -0.85701,0.17487 -1.165,0.48571c-0.31084,0.30799 -0.48572,0.72742 -0.48572,1.165c0,0.43758 0.17487,0.85702 0.48572,1.165c0.30746,0.3067 0.72577,0.47619 1.16,0.47c0.43746,0.00776 0.85947,-0.16176 1.17,-0.47h1.82l-0.04,1.72l-6.83,6.73c-0.64621,0.63663 -1.68379,0.63663 -2.33,0l-3.5,-3.53c-0.64207,-0.64397 -0.64207,-1.68603 0,-2.33l6.77,-6.62z" fill="#1c75bc" stroke="none" stroke-width="1"/><path d="M327.665,176.125v0.78h-4.42c-0.03765,0.06079 -0.08119,0.11773 -0.13,0.17c-0.15418,0.15697 -0.36498,0.24539 -0.585,0.24539c-0.22003,0 -0.43082,-0.08842 -0.585,-0.24539c-0.22719,-0.24047 -0.28988,-0.59289 -0.15957,-0.89696c0.13031,-0.30407 0.42876,-0.50172 0.75957,-0.50304c0.21708,0.00204 0.42494,0.08805 0.58,0.24c0.04896,0.05352 0.08943,0.11422 0.12,0.18z" fill="#1c75bc" stroke="none" stroke-width="1"/></g></g></g></svg>