<svg version="1.1" xmlns="http://www.w3.org/2000/svg" xmlns:xlink="http://www.w3.org/1999/xlink" width="20.61002" height="20.61" viewBox="0,0,20.61002,20.61"><g transform="translate(-309.69499,-169.695)"><g data-paper-data="{&quot;isPaintingLayer&quot;:true}" fill-rule="nonzero" stroke-linecap="butt" stroke-linejoin="miter" stroke-miterlimit="10" stroke-dasharray="" stroke-dashoffset="0" style="mix-blend-mode: normal"><g><path d="M327.80001,169.82c1.31054,-0.00001 2.37449,1.05947 2.38,2.37v15.61c0,1.31444 -1.06556,2.38 -2.38,2.38h-15.61c-0.6303,0 -1.23464,-0.25107 -1.67939,-0.69769c-0.44475,-0.44663 -0.69327,-1.05202 -0.69061,-1.68231v-15.61c0,-1.30892 1.06108,-2.37 2.37,-2.37h15.61" fill="#1c75bc" stroke="#1c75bc" stroke-width="0.25"/><path d="M320.00001,186.35c-0.19977,0.00008 -0.39109,-0.08063 -0.53045,-0.22377c-0.13936,-0.14314 -0.21495,-0.33653 -0.20955,-0.53623v-11.2c-0.03307,-0.28306 0.09935,-0.55996 0.34044,-0.71192c0.24109,-0.15195 0.54803,-0.15195 0.78913,0c0.24109,0.15195 0.37351,0.42885 0.34044,0.71192v11.2c0.00004,0.40482 -0.32522,0.73453 -0.73,0.74" fill="#ffffff" stroke="none" stroke-width="1"/><path d="M327.69001,180.69h-15.38c-0.28306,0.03307 -0.55996,-0.09934 -0.71191,-0.34044c-0.15195,-0.2411 -0.15195,-0.54803 0,-0.78912c0.15195,-0.2411 0.42885,-0.37351 0.71191,-0.34044h15.38c0.28306,-0.03307 0.55996,0.09934 0.71192,0.34044c0.15195,0.2411 0.15195,0.54803 0,0.78912c-0.15195,0.2411 -0.42886,0.37351 -0.71192,0.34044" fill="#ffffff" stroke="none" stroke-width="1"/><path d="M325.40001,176.79996c0.00405,0.54692 -0.32229,1.04224 -0.82641,1.25435c-0.50412,0.21211 -1.08642,0.09909 -1.47459,-0.28621c-0.38817,-0.3853 -0.50552,-0.96673 -0.29716,-1.47242c0.20835,-0.50569 0.70123,-0.8357 1.24816,-0.83572c0.35712,-0.00267 0.70053,0.13734 0.954,0.38893c0.25347,0.25159 0.39601,0.59394 0.39601,0.95108" fill="#ffffff" stroke="none" stroke-width="1"/><path d="M317.29001,176.79996c0.00405,0.54692 -0.32229,1.04224 -0.82641,1.25435c-0.50412,0.21211 -1.08641,0.09909 -1.47459,-0.28621c-0.38817,-0.3853 -0.50552,-0.96673 -0.29717,-1.47242c0.20835,-0.50569 0.70123,-0.8357 1.24816,-0.83572c0.35712,-0.00267 0.70053,0.13734 0.954,0.38893c0.25347,0.25159 0.39601,0.59394 0.39601,0.95108" fill="#ffffff" stroke="none" stroke-width="1"/><path d="M325.40001,183.23996c0,0.74559 -0.60442,1.35 -1.35,1.35c-0.74559,0 -1.35,-0.60442 -1.35,-1.35c0,-0.74559 0.60442,-1.35 1.35,-1.35c0.74559,0 1.35,0.60441 1.35,1.35" fill="#ffffff" stroke="none" stroke-width="1"/><path d="M317.29001,183.23996c0,0.74559 -0.60442,1.35 -1.35,1.35c-0.74559,0 -1.35,-0.60442 -1.35,-1.35c0,-0.74559 0.60441,-1.35 1.35,-1.35c0.74559,0 1.35,0.60441 1.35,1.35" fill="#ffffff" stroke="none" stroke-width="1"/></g></g></g></svg>