<svg version="1.1" xmlns="http://www.w3.org/2000/svg" xmlns:xlink="http://www.w3.org/1999/xlink" width="20.86002" height="20.88" viewBox="0,0,20.86002,20.88"><g transform="translate(-309.56997,-169.56)"><g data-paper-data="{&quot;isPaintingLayer&quot;:true}" fill-rule="nonzero" stroke-linecap="butt" stroke-linejoin="miter" stroke-miterlimit="10" stroke-dasharray="" stroke-dashoffset="0" style="mix-blend-mode: normal"><path d="M327.81,169.81c1.29729,-0.0001 2.35358,1.04281 2.37,2.34v15.66c0.00266,0.63029 -0.24586,1.23568 -0.69061,1.68231c-0.44475,0.44663 -1.04909,0.69769 -1.67939,0.69769h-15.62c-0.6303,0 -1.23463,-0.25106 -1.67938,-0.69769c-0.44475,-0.44663 -0.69328,-1.05202 -0.69062,-1.68231v-15.63c0,-1.30892 1.06108,-2.37 2.37,-2.37h15.62" fill="#5a6978" stroke="#074574" stroke-width="0.5"/><path d="M314.76,179.89999c-0.40751,-0.00534 -0.8003,0.15213 -1.09128,0.43747c-0.29098,0.28535 -0.45609,0.67499 -0.45872,1.08253c-0.00441,0.03319 -0.00441,0.06681 0,0.1h-0.22v0c-0.5498,-0.01272 -1.09107,-0.13867 -1.59,-0.37h0.07v-0.32h-0.3l-0.12,-0.18v0c-0.0036,-0.53343 0.10544,-1.06161 0.32,-1.55h0.12c1.6,-0.09 4.63,0 5.27,0h0.64c0.08,0.33 0.14,0.77 0.14,0.77c-0.05278,0.08226 -0.05278,0.18774 0,0.27c0.11275,0.37428 0.18319,0.76003 0.21,1.15v0h-1.54c-0.0866,-0.77971 -0.7455,-1.3697 -1.53,-1.37" fill="#ffffff" stroke="none" stroke-width="1"/><path d="M324.22,181.54003c0.02821,-0.00284 0.05629,0.00644 0.07727,0.02551c0.02098,0.01907 0.03287,0.04614 0.03273,0.07449c0,0.06075 -0.04925,0.11 -0.11,0.11h-8c-0.06075,0 -0.11,-0.04925 -0.11,-0.11c-0.00014,-0.02835 0.01176,-0.05542 0.03274,-0.07449c0.02098,-0.01907 0.04906,-0.02834 0.07727,-0.02551h8" fill="#ffffff" stroke="none" stroke-width="1"/><path d="M314.68,182.51003c0.55228,0 1,-0.44771 1,-1c0,-0.55229 -0.44772,-1 -1,-1c-0.55228,0 -1,0.44771 -1,1c0,0.55229 0.44772,1 1,1M314.68,180.22001c0.71018,0.00544 1.28456,0.57982 1.29,1.29c0,0.71245 -0.57756,1.29 -1.29,1.29c-0.71245,0 -1.29,-0.57755 -1.29,-1.29c0,-0.71245 0.57755,-1.29 1.29,-1.29" fill="#ffffff" stroke="none" stroke-width="1"/><path d="M314.68,182.17998c0.37003,0 0.67,-0.29997 0.67,-0.67c0,-0.37003 -0.29997,-0.67 -0.67,-0.67c-0.37003,0 -0.67,0.29997 -0.67,0.67c0,0.37003 0.29997,0.67 0.67,0.67M314.68,180.69002c0.44896,0.00547 0.81004,0.371 0.81,0.82c-0.00002,0.33256 -0.20091,0.63218 -0.50855,0.75849c-0.30764,0.12631 -0.66111,0.0543 -0.89482,-0.18229c-0.23371,-0.23659 -0.30137,-0.59092 -0.1713,-0.89699c0.13007,-0.30607 0.43213,-0.50326 0.76467,-0.49921" fill="#ffffff" stroke="none" stroke-width="1"/><path d="M314.68,181.64999c0.03629,0.00011 0.07096,-0.01495 0.09565,-0.04154c0.02469,-0.02659 0.03714,-0.06229 0.03435,-0.09846c0,-0.0718 -0.0582,-0.13 -0.13,-0.13c-0.03618,-0.00279 -0.07187,0.00966 -0.09846,0.03435c-0.02659,0.02469 -0.04165,0.05937 -0.04154,0.09565c0,0.07732 0.06268,0.14 0.14,0.14M314.68,181.23003c0.15245,0.00517 0.27483,0.12756 0.28,0.28c0.00404,0.11902 -0.06509,0.22841 -0.17433,0.27584c-0.10924,0.04743 -0.23636,0.02326 -0.32056,-0.06094c-0.0842,-0.0842 -0.10838,-0.21133 -0.06095,-0.32057c0.04743,-0.10924 0.15681,-0.17837 0.27583,-0.17433" fill="#ffffff" stroke="none" stroke-width="1"/><path d="M325.85,182.51003c0.55228,0 1,-0.44771 1,-1c0,-0.55229 -0.44772,-1 -1,-1c-0.55228,0 -1,0.44771 -1,1c0,0.55229 0.44772,1 1,1M325.85,180.22001c0.71245,0 1.29,0.57755 1.29,1.29c0,0.71245 -0.57756,1.29 -1.29,1.29c-0.71245,0 -1.29,-0.57755 -1.29,-1.29c0,-0.71245 0.57756,-1.29 1.29,-1.29" fill="#ffffff" stroke="none" stroke-width="1"/><path d="M325.85,182.17998c0.37003,0 0.67,-0.29997 0.67,-0.67c0,-0.37003 -0.29997,-0.67 -0.67,-0.67c-0.37003,0 -0.67,0.29997 -0.67,0.67c0,0.37003 0.29997,0.67 0.67,0.67M325.85,180.69002c0.45288,0 0.82,0.36712 0.82,0.82c0,0.45288 -0.36712,0.82 -0.82,0.82c-0.45288,0 -0.82,-0.36712 -0.82,-0.82c0,-0.45288 0.36712,-0.82 0.82,-0.82" fill="#ffffff" stroke="none" stroke-width="1"/><path d="M325.89,181.64999c0.07732,0 0.14,-0.06268 0.14,-0.14c0.00011,-0.03628 -0.01495,-0.07096 -0.04154,-0.09565c-0.02659,-0.02469 -0.06228,-0.03714 -0.09846,-0.03435c-0.07358,-0.00019 -0.13475,0.05661 -0.14,0.13c-0.00266,0.06406 0.03854,0.12174 0.1,0.14M325.89,181.23003c0.15464,0 0.28,0.12536 0.28,0.28c0.00404,0.11902 -0.06509,0.22841 -0.17433,0.27584c-0.10924,0.04743 -0.23636,0.02326 -0.32056,-0.06094c-0.0842,-0.0842 -0.10838,-0.21133 -0.06095,-0.32057c0.04743,-0.10924 0.15682,-0.17837 0.27584,-0.17433" fill="#ffffff" stroke="none" stroke-width="1"/><path d="M328.8,180.76003c0.00943,-0.04619 0.00943,-0.09381 0,-0.14c-0.03342,-0.05323 -0.08801,-0.08963 -0.15,-0.1v0l-0.1,0.06h-0.07v0h-0.24h-0.57c-0.13,0 -0.13,0.07 -0.13,0.07v0c0.04591,0.01185 0.09409,0.01185 0.14,0h1.13M322.37,178.95003c0.09,-0.04 0.22,-0.1 0.22,-0.16c-0.15,-0.08 -0.98,-0.71 -1.3,-1l-0.14,-0.14l-0.18,-0.17c-0.05568,0.08128 -0.13148,0.14675 -0.22,0.19l1.62,1.42M321.55,178.95003c0.56,0 0.44,-0.07 0.34,-0.16c-0.82,-0.72 -1.31,-1.29 -1.89,-1.29c-0.85,0 -2.84,0.07 -2.94,0.31c0.02569,0.39138 0.11346,0.77618 0.26,1.14h4.22M318.75,179.60998c0.03866,0 0.07,-0.03134 0.07,-0.07c0,-0.03866 -0.03134,-0.07 -0.07,-0.07h-0.68c-0.03866,0 -0.07,0.03134 -0.07,0.07c0,0.03866 0.03134,0.07 0.07,0.07h0.68M315.04,178.81c0.31,0 1.71,0 1.71,0c-0.03965,-0.29795 -0.10319,-0.59223 -0.19,-0.88c-0.67901,0.18064 -1.34683,0.40103 -2,0.66c-0.02,0.08 0.07,0.16 0.27,0.16h0.06h0.11M328.73,180.26999c0.07678,0.04502 0.1392,0.1109 0.18,0.19c0.04389,0.10562 0.04389,0.22438 0,0.33c-0.13898,0.23358 -0.30699,0.44862 -0.5,0.64c-0.33956,0.1515 -0.70824,0.2266 -1.08,0.22c0,0 0,-0.01 0,-0.11c0,-0.1 -0.06,-0.1 0,-0.1c-0.12306,-0.76605 -0.78413,-1.3294 -1.56,-1.3294c-0.77587,0 -1.43694,0.56334 -1.56,1.3294h-1.86c0.06556,-0.39346 0.10233,-0.79118 0.11,-1.19c-0.02754,-0.11166 -0.02754,-0.22834 0,-0.34c-0.02632,-0.20659 -0.0698,-0.41063 -0.13,-0.61h0.83h0.09c1.06,0.01 4.23,0.07 4.65,0.12c0.27589,0.05769 0.53977,0.16257 0.78,0.31v-0.09c-0.24555,-0.15548 -0.51624,-0.26714 -0.8,-0.33c-0.42,-0.06 -3.59,-0.13 -4.65,-0.13h-1h-2.28h2.26c0.06106,0.20935 0.10454,0.42342 0.13,0.64c-0.02723,0.11508 -0.02723,0.23492 0,0.35c0.02139,0.19609 0.02139,0.39391 0,0.59h-2c-0.05705,-0.00024 -0.10482,0.04318 -0.11,0.1c0,0.06075 0.04925,0.11 0.11,0.11h2c-0.06,0.17 -0.06,0.33 -0.06,0.46l-4.48,-0.05v0c-0.02322,-0.40276 -0.09028,-0.80178 -0.2,-1.19c-0.04804,-0.08715 -0.04804,-0.19285 0,-0.28c-0.03048,-0.26594 -0.07723,-0.52978 -0.14,-0.79h-0.77c-0.64,0 -3.51,-0.1 -5.14,0c0.09,-0.01 0.09,-0.35 1.48,-0.35l0.35,-0.12c0.30667,-0.1 0.64,-0.23 1,-0.39c0.7026,-0.29763 1.43279,-0.5254 2.18,-0.68c1.11973,-0.24555 2.26374,-0.36298 3.41,-0.35c0.36741,-0.01796 0.73307,0.06139 1.06,0.23v0c0.09884,0.06564 0.18948,0.14286 0.27,0.23c0.04079,0.04581 0.0842,0.08921 0.13,0.13c0.31,0.27 1.24,0.95 1.31,1v0l3.38,0.07c0.80725,-0.01605 1.61339,0.06791 2.4,0.25c0.32,0.08 0.38,0.28 0.38,0.37v0c0.00227,0.03663 0.00227,0.07337 0,0.11c-0.02,0.11 -0.1,0.29 -0.1,0.41v0.21v0c-0.0038,-0.03322 -0.0038,-0.06678 0,-0.1c0.03,-0.09 0.13,-0.38 0.13,-0.53c0.00227,-0.03663 0.00227,-0.07337 0,-0.11v0l0.15,0.1l-0.15,0.7h-0.07" fill="#ffffff" stroke="none" stroke-width="1"/><path d="M315.75,181.51003c-0.00002,0.44177 -0.26668,0.83984 -0.67521,1.00795c-0.40853,0.16811 -0.87814,0.07301 -1.18908,-0.24081c-0.31093,-0.31382 -0.40171,-0.78428 -0.22984,-1.19124c0.17187,-0.40697 0.57238,-0.66995 1.01413,-0.6659c0.28818,-0.00001 0.56441,0.11515 0.76724,0.31985c0.20283,0.2047 0.31543,0.48199 0.31276,0.77015" fill="#ffffff" stroke="none" stroke-width="1"/><path d="M326.94,181.51003c0,0.60199 -0.48801,1.09 -1.09,1.09c-0.60199,0 -1.09,-0.48801 -1.09,-1.09c0,-0.60199 0.48801,-1.09 1.09,-1.09c0.60199,0 1.09,0.48801 1.09,1.09" fill="#ffffff" stroke="none" stroke-width="1"/><path d="M316.12,181.64003l0.09,-0.35l0.13,-1.13l-1.76,-0.48l-3,1.56l-0.19,-0.1c-0.21645,-0.06998 -0.36228,-0.27253 -0.36,-0.5l0.32,-1.55l0.34,-0.11l5.6,-0.09l0.08,0.1h0.27l4.45,0.31l0.19,-0.28l5.74,0.1l0.91,0.34l-0.06,0.65l0.06,0.39v0.31l-1.28,0.26l-0.66,-0.87l-2.24,-0.46l-0.51,0.81v0.82v0.27z" fill="#ffffff" stroke="none" stroke-width="1"/></g></g></svg>