<svg version="1.1" xmlns="http://www.w3.org/2000/svg" xmlns:xlink="http://www.w3.org/1999/xlink" width="20.61" height="20.62" viewBox="0,0,20.61,20.62"><g transform="translate(-309.695,-169.69)"><g data-paper-data="{&quot;isPaintingLayer&quot;:true}" fill-rule="nonzero" stroke-linecap="butt" stroke-linejoin="miter" stroke-miterlimit="10" stroke-dasharray="" stroke-dashoffset="0" style="mix-blend-mode: normal"><g><path d="M327.8,169.815c1.31216,0.00548 2.37452,1.06784 2.38,2.38v15.61c-0.00548,1.31216 -1.06784,2.37452 -2.38,2.38h-15.61c-1.31053,-0.0055 -2.37001,-1.06946 -2.37,-2.38v-15.61c-0.00001,-1.31054 1.05947,-2.37449 2.37,-2.38h15.61" fill="#ffffff" stroke="#1c75bc" stroke-width="0.25"/><path d="M320,186.355c-0.40869,0 -0.74,-0.33131 -0.74,-0.74v-11.23c0.04358,-0.37293 0.35953,-0.65412 0.735,-0.65412c0.37547,0 0.69142,0.28119 0.735,0.65412v11.23c0.00004,0.40482 -0.32522,0.73453 -0.73,0.74" fill="#1c75bc" stroke="none" stroke-width="1"/><path d="M327.69,180.695h-15.38c-0.28306,0.03307 -0.55996,-0.09934 -0.71191,-0.34043c-0.15195,-0.2411 -0.15195,-0.54803 0,-0.78913c0.15195,-0.2411 0.42885,-0.37351 0.71191,-0.34044h15.38c0.28306,-0.03307 0.55996,0.09934 0.71192,0.34044c0.15195,0.2411 0.15195,0.54803 0,0.78913c-0.15196,0.2411 -0.42885,0.37351 -0.71192,0.34043" fill="#1c75bc" stroke="none" stroke-width="1"/><path d="M325.4,176.805c0,0.74559 -0.60441,1.35 -1.35,1.35c-0.74559,0 -1.35,-0.60441 -1.35,-1.35c0,-0.74559 0.60441,-1.35 1.35,-1.35c0.35886,-0.00269 0.70381,0.13868 0.95756,0.39244c0.25376,0.25376 0.39513,0.5987 0.39243,0.95756" fill="#1c75bc" stroke="none" stroke-width="1"/><path d="M317.29,176.805c0,0.74559 -0.60441,1.35 -1.35,1.35c-0.74559,0 -1.35,-0.60441 -1.35,-1.35c0,-0.74559 0.60442,-1.35 1.35,-1.35c0.35886,-0.00269 0.7038,0.13868 0.95756,0.39244c0.25376,0.25376 0.39513,0.5987 0.39244,0.95756" fill="#1c75bc" stroke="none" stroke-width="1"/><path d="M325.4,183.245c0,0.74559 -0.60441,1.35 -1.35,1.35c-0.74559,0 -1.35,-0.60441 -1.35,-1.35c0,-0.74559 0.60441,-1.35 1.35,-1.35c0.35886,-0.00269 0.70381,0.13868 0.95756,0.39244c0.25376,0.25376 0.39513,0.5987 0.39243,0.95756" fill="#1c75bc" stroke="none" stroke-width="1"/><path d="M317.29,183.245c0,0.74559 -0.60441,1.35 -1.35,1.35c-0.74559,0 -1.35,-0.60441 -1.35,-1.35c0,-0.74559 0.60442,-1.35 1.35,-1.35c0.35886,-0.00269 0.7038,0.13868 0.95756,0.39244c0.25376,0.25376 0.39513,0.5987 0.39244,0.95756" fill="#1c75bc" stroke="none" stroke-width="1"/></g></g></g></svg>