<svg version="1.1" xmlns="http://www.w3.org/2000/svg" xmlns:xlink="http://www.w3.org/1999/xlink" width="20.82002" height="20.88" viewBox="0,0,20.82002,20.88"><g transform="translate(-309.58998,-169.56)"><g data-paper-data="{&quot;isPaintingLayer&quot;:true}" fill-rule="nonzero" stroke-linecap="butt" stroke-linejoin="miter" stroke-miterlimit="10" stroke-dasharray="" stroke-dashoffset="0" style="mix-blend-mode: normal"><path d="M327.82,169.81c1.28559,0.01618 2.32382,1.05441 2.34,2.34v15.66c0.0056,1.30118 -1.03891,2.36354 -2.34,2.38h-15.61c-0.6303,0 -1.23463,-0.25106 -1.67938,-0.69769c-0.44475,-0.44663 -0.69328,-1.05202 -0.69062,-1.68231v-15.63c0,-1.30892 1.06108,-2.37 2.37,-2.37h15.61" fill="#5a6978" stroke="#074574" stroke-width="0.5"/><path d="M321.47,179.87l-0.47,-1.77l1.51,-1.52l1.77,0.48z" fill="#ffffff" stroke="none" stroke-width="1"/><path d="M324.65,177.39003l0.49,1.82l-1.52,1.51l-1.82,-0.48z" fill="#ffffff" stroke="none" stroke-width="1"/><path d="M323.82,181.42003l3.34,-3.34c0.11093,0.38112 0.17803,0.77367 0.2,1.17l-3.38,3.38l-3.82,-1l-1,-3.82l3.39,-3.44c0.36962,0.02607 0.7352,0.09315 1.09,0.2l-3.34,3.34l0.74,2.76z" fill="#ffffff" stroke="none" stroke-width="1"/><path d="M327.4,179.98998c-0.09497,1.62339 -0.93269,3.11246 -2.27083,4.03646c-1.33814,0.924 -3.02742,1.17986 -4.57916,0.69354l-0.83,0.83h-5l3.51,-3.5c0.09028,-0.0992 0.09028,-0.2508 0,-0.35c-0.04537,-0.04834 -0.1087,-0.07576 -0.175,-0.07576c-0.0663,0 -0.12964,0.02742 -0.175,0.07576l-3.86,3.86h-1.35l4.36,-4.35c-0.49388,-1.57082 -0.22666,-3.28211 0.72262,-4.62757c0.94928,-1.34546 2.4719,-2.17102 4.11739,-2.23243l-3.29,3.29l1.18,4.38l4.4,1.17z" fill="#ffffff" stroke="none" stroke-width="1"/></g></g></svg>