<svg version="1.1" xmlns="http://www.w3.org/2000/svg" xmlns:xlink="http://www.w3.org/1999/xlink" width="20.61" height="20.62" viewBox="0,0,20.61,20.62"><g transform="translate(-309.695,-169.69)"><g data-paper-data="{&quot;isPaintingLayer&quot;:true}" fill-rule="nonzero" stroke-linecap="butt" stroke-linejoin="miter" stroke-miterlimit="10" stroke-dasharray="" stroke-dashoffset="0" style="mix-blend-mode: normal"><g><path d="M327.81,169.815c1.31053,0.0055 2.37001,1.06946 2.37,2.38v15.61c0.00001,1.31054 -1.05947,2.37449 -2.37,2.38h-15.62c-1.31053,-0.0055 -2.37001,-1.06946 -2.37,-2.38v-15.61c-0.00001,-1.31054 1.05947,-2.3745 2.37,-2.38h15.62" fill="#ffffff" stroke="#1c75bc" stroke-width="0.25"/><path d="M314.69,179.935c-0.40843,-0.00266 -0.8012,0.15704 -1.09188,0.44397c-0.29068,0.28693 -0.45548,0.67759 -0.45812,1.08603c-0.00486,0.0298 -0.00486,0.0602 0,0.09h-0.22v0c-0.5491,-0.00958 -1.09033,-0.13213 -1.59,-0.36h0.07v-0.32h-0.3l-0.12,-0.18v0c0.01454,-0.54543 0.14763,-1.08117 0.39,-1.57h0.12c1.6,-0.09 4.63,0 5.27,0h0.64c0.08,0.34 0.14,0.77 0.14,0.77c-0.05455,0.08536 -0.05455,0.19464 0,0.28c0.11275,0.37428 0.18319,0.76002 0.21,1.15v0h-1.54c-0.09089,-0.7775 -0.74723,-1.36519 -1.53,-1.37" fill="#1c75bc" stroke="none" stroke-width="1"/><path d="M324.22,181.575c0.06075,0 0.11,0.04925 0.11,0.11c0,0.06075 -0.04925,0.11 -0.11,0.11h-8c-0.06075,0 -0.11,-0.04925 -0.11,-0.11c0,-0.06075 0.04925,-0.11 0.11,-0.11h8" fill="#1c75bc" stroke="none" stroke-width="1"/><path d="M314.68,182.555c0.55228,0 1,-0.44772 1,-1c0,-0.55228 -0.44772,-1 -1,-1c-0.55228,0 -1,0.44772 -1,1c0,0.55228 0.44772,1 1,1M314.68,180.265c0.71018,0.00544 1.28456,0.57982 1.29,1.29c0,0.71245 -0.57756,1.29 -1.29,1.29c-0.71245,0 -1.29,-0.57755 -1.29,-1.29c0,-0.71245 0.57756,-1.29 1.29,-1.29" fill="#1c75bc" stroke="none" stroke-width="1"/><path d="M314.68,182.225c0.37003,0 0.67,-0.29997 0.67,-0.67c0,-0.37003 -0.29997,-0.67 -0.67,-0.67c-0.37003,0 -0.67,0.29997 -0.67,0.67c0,0.37003 0.29997,0.67 0.67,0.67M314.68,180.735c0.44896,0.00548 0.81004,0.37101 0.81,0.82c-0.00002,0.33257 -0.20091,0.63218 -0.50855,0.75849c-0.30764,0.12631 -0.66111,0.0543 -0.89482,-0.18229c-0.23371,-0.23659 -0.30137,-0.59092 -0.1713,-0.89699c0.13007,-0.30607 0.43213,-0.50326 0.76467,-0.49921" fill="#1c75bc" stroke="none" stroke-width="1"/><path d="M314.68,181.695c0.07732,0 0.14,-0.06268 0.14,-0.14c0,-0.07732 -0.06268,-0.14 -0.14,-0.14c-0.07732,0 -0.14,0.06268 -0.14,0.14c0,0.07732 0.06268,0.14 0.14,0.14M314.68,181.275c0.15464,0 0.28,0.12536 0.28,0.28c0,0.15464 -0.12536,0.28 -0.28,0.28c-0.15464,0 -0.28,-0.12536 -0.28,-0.28c0,-0.15464 0.12536,-0.28 0.28,-0.28" fill="#1c75bc" stroke="none" stroke-width="1"/><path d="M325.85,182.555c0.55228,0 1,-0.44772 1,-1c0,-0.55228 -0.44772,-1 -1,-1c-0.55228,0 -1,0.44772 -1,1c0,0.55228 0.44772,1 1,1M325.85,180.265c0.71245,0 1.29,0.57756 1.29,1.29c0,0.71245 -0.57755,1.29 -1.29,1.29c-0.71245,0 -1.29,-0.57755 -1.29,-1.29c0,-0.71245 0.57756,-1.29 1.29,-1.29" fill="#1c75bc" stroke="none" stroke-width="1"/><path d="M325.85,182.225c0.37003,0 0.67,-0.29997 0.67,-0.67c0,-0.37003 -0.29997,-0.67 -0.67,-0.67c-0.37003,0 -0.67,0.29997 -0.67,0.67c0,0.37003 0.29997,0.67 0.67,0.67M325.85,180.695c0.22459,-0.00026 0.43946,0.09159 0.59445,0.25414c0.15499,0.16254 0.23651,0.38154 0.22555,0.60586c0,0.45288 -0.36712,0.82 -0.82,0.82c-0.45288,0 -0.82,-0.36712 -0.82,-0.82c0,-0.45288 0.36712,-0.82 0.82,-0.82" fill="#1c75bc" stroke="none" stroke-width="1"/><path d="M328.8,180.765c0.00943,-0.04619 0.00943,-0.09381 0,-0.14c-0.02,-0.05 -0.07,-0.11 -0.15,-0.11v0l-0.1,0.06h-0.07v0l-0.24,0.05h-0.57c-0.13,0 -0.13,0.07 -0.13,0.07c0.04613,0.01001 0.09387,0.01001 0.14,0h1.13v0v0M322.37,178.965c0.09,-0.03 0.22,-0.09 0.22,-0.15c-0.15,-0.09 -0.98,-0.71 -1.3,-1l-0.14,-0.14l-0.18,-0.17c-0.05568,0.08128 -0.13148,0.14675 -0.22,0.19l1.63,1.32M321.55,178.965c0.56,0 0.44,-0.06 0.34,-0.15c-0.82,-0.72 -1.31,-1.29 -1.89,-1.29c-0.85,0 -2.84,0.07 -2.94,0.31c0.02556,0.38817 0.11334,0.7697 0.26,1.13h4.22M318.75,179.695c0.03866,0 0.07,-0.03134 0.07,-0.07c0.00032,-0.04055 -0.02976,-0.07493 -0.07,-0.08h-0.68c-0.04024,0.00507 -0.07032,0.03945 -0.07,0.08c0,0.03866 0.03134,0.07 0.07,0.07h0.68M314.99,178.835c0.31,0 1.71,0 1.71,0c-0.0281,-0.28677 -0.07824,-0.57094 -0.15,-0.85c-0.68036,0.17609 -1.34846,0.39656 -2,0.66c-0.02,0.08 0.07,0.15 0.27,0.15c0.01898,0.00901 0.04102,0.00901 0.06,0h0.11M328.8,180.235c0.07398,0.04416 0.13584,0.10602 0.18,0.18c0.04446,0.10898 0.04446,0.23102 0,0.34c-0.14156,0.23181 -0.30933,0.44656 -0.5,0.64c-0.33855,0.15375 -0.70851,0.22569 -1.08,0.21c0,0 0,-0.04 0,-0.1c0,-0.06 -0.06,-0.11 0,-0.11c-0.12306,-0.76605 -0.78413,-1.3294 -1.56,-1.3294c-0.77587,0 -1.43694,0.56334 -1.56,1.3294h-1.86c0.06525,-0.39687 0.10201,-0.79789 0.11,-1.2c-0.02794,-0.10823 -0.02794,-0.22178 0,-0.33c-0.0253,-0.20676 -0.0688,-0.41088 -0.13,-0.61h0.92c1.06,0.02 4.23,0.07 4.65,0.13c0.27589,0.05769 0.53977,0.16257 0.78,0.31l-0.09,-0.17c-0.24727,-0.15444 -0.51721,-0.26916 -0.8,-0.34c-0.42,-0.05 -3.59,-0.13 -4.65,-0.13h-1h-2.28h2.26c0.06106,0.20934 0.10454,0.42342 0.13,0.64c-0.02723,0.11508 -0.02723,0.23492 0,0.35c0.02139,0.19608 0.02139,0.39392 0,0.59h-2c-0.02821,-0.00284 -0.05629,0.00643 -0.07726,0.0255c-0.02098,0.01907 -0.03287,0.04614 -0.03274,0.07449c0,0.06075 0.04925,0.11 0.11,0.11h2c-0.06,0.17 -0.06,0.34 -0.06,0.47h-4.48v0c-0.02249,-0.40284 -0.08957,-0.80194 -0.2,-1.19c-0.04804,-0.08715 -0.04804,-0.19285 0,-0.28c-0.03094,-0.26918 -0.07769,-0.53631 -0.14,-0.8h-0.77c-0.64,0 -3.51,-0.1 -5.14,0c0.09,-0.01 0.09,-0.35 1.48,-0.35l0.31,-0.06c0.30667,-0.1 0.64,-0.23 1,-0.39c0.7026,-0.29763 1.43279,-0.5254 2.18,-0.68c1.11892,-0.25053 2.26352,-0.36801 3.41,-0.35c0.366,-0.01444 0.72997,0.0611 1.06,0.22v0c0.09884,0.06565 0.18948,0.14285 0.27,0.23l0.13,0.13c0.31,0.27 1.24,1 1.31,1v0l3.39,0.11c0.80725,-0.01605 1.61339,0.06791 2.4,0.25c0.32,0.08 0.38,0.28 0.38,0.37v0c0.00198,0.0333 0.00198,0.06669 0,0.1c-0.02,0.12 -0.1,0.29 -0.1,0.42v0.21v0c-0.00198,-0.0333 -0.00198,-0.06669 0,-0.1c0.05267,-0.17424 0.09607,-0.35116 0.13,-0.53c0.00198,-0.0333 0.00198,-0.06669 0,-0.1v0l0.15,0.1l-0.15,0.7h-0.07" fill="#1c75bc" stroke="none" stroke-width="1"/><path d="M315.75,181.555c-0.00002,0.44177 -0.26668,0.83984 -0.67521,1.00795c-0.40853,0.16811 -0.87814,0.07301 -1.18908,-0.24081c-0.31093,-0.31382 -0.40171,-0.78428 -0.22984,-1.19124c0.17187,-0.40696 0.57238,-0.66995 1.01413,-0.6659c0.28818,-0.00001 0.5644,0.11514 0.76723,0.31985c0.20283,0.20471 0.31544,0.48198 0.31277,0.77015" fill="#1c75bc" stroke="none" stroke-width="1"/><path d="M326.94,181.555c0,0.60199 -0.48801,1.09 -1.09,1.09c-0.60199,0 -1.09,-0.48801 -1.09,-1.09c0,-0.60199 0.48801,-1.09 1.09,-1.09c0.60199,0 1.09,0.48801 1.09,1.09" fill="#1c75bc" stroke="none" stroke-width="1"/><path d="M316.12,181.695l0.09,-0.36l0.13,-1.12l-1.76,-0.52l-3,1.57l-0.19,-0.1c-0.21645,-0.06998 -0.36228,-0.27253 -0.36,-0.5l0.32,-1.55l0.34,-0.12l5.6,-0.08l0.08,0.09h0.27l4.45,0.32l0.19,-0.28l5.74,0.1l0.91,0.34l-0.06,0.64l0.06,0.4v0.27l-1.28,0.26l-0.66,-0.87l-2.24,-0.4l-0.51,0.8v0.83v0.27z" fill="#1c75bc" stroke="none" stroke-width="1"/></g></g></g></svg>