<svg version="1.1" xmlns="http://www.w3.org/2000/svg" xmlns:xlink="http://www.w3.org/1999/xlink" width="20.62" height="20.62" viewBox="0,0,20.62,20.62"><g transform="translate(-309.69,-169.69)"><g data-paper-data="{&quot;isPaintingLayer&quot;:true}" fill-rule="nonzero" stroke-linecap="butt" stroke-linejoin="miter" stroke-miterlimit="10" stroke-dasharray="" stroke-dashoffset="0" style="mix-blend-mode: normal"><g><path d="M327.805,169.815c1.31216,0.00548 2.37452,1.06784 2.38,2.38v15.61c-0.00548,1.31216 -1.06784,2.37452 -2.38,2.38h-15.61c-1.31216,-0.00548 -2.37452,-1.06784 -2.38,-2.38v-15.61c0.00548,-1.31216 1.06784,-2.37452 2.38,-2.38h15.61" fill="#ffffff" stroke="#1c75bc" stroke-width="0.25"/><path d="M324.295,180.405l-2.16,2.11l0.51,3l-2.66,-1.4l-2.67,1.4l0.51,-3l-2.16,-2.11l3,-0.43l1.34,-2.7l1.19,2.43c-1.16,0.6 -2.18,1.15 -2.34,1.28c-0.39,0.31 -0.35,1.01 0.1,1.57c0.45,0.56 1.13,0.76 1.52,0.44c0.2,-0.16 1.34,-1.5 2.43,-2.79z" fill="#1c75bc" stroke="none" stroke-width="1"/><path d="M320.415,182.465c-0.22165,0.24861 -0.57043,0.34065 -0.88588,0.23377c-0.31545,-0.10688 -0.53645,-0.39198 -0.56133,-0.72411c-0.02488,-0.33213 0.1512,-0.64697 0.44721,-0.79965c0.36,-0.29 5.31,-3.19 5.31,-3.19c0,0 -3.92,4.19 -4.28,4.48" fill="#1c75bc" stroke="none" stroke-width="1"/><path d="M325.535,185.835c-0.10056,0.00073 -0.1987,-0.03082 -0.28,-0.09c-0.22005,-0.1552 -0.27363,-0.45886 -0.12,-0.68c1.82425,-2.61971 1.40071,-6.18986 -0.98585,-8.31003c-2.38656,-2.12017 -5.98174,-2.12017 -8.36829,0c-2.38656,2.12017 -2.81011,5.69031 -0.98586,8.31003c0.15161,0.22373 0.09345,0.52797 -0.13,0.68c-0.22373,0.15161 -0.52797,0.09345 -0.68,-0.13c-0.83776,-1.21022 -1.28449,-2.64812 -1.28,-4.12c-0.09877,-2.66344 1.26584,-5.16793 3.55739,-6.52898c2.29155,-1.36105 5.14368,-1.36105 7.43523,0c2.29155,1.36105 3.65615,3.86554 3.55739,6.52898c0.00648,1.49686 -0.45504,2.95833 -1.32,4.18c-0.08741,0.13517 -0.23911,0.2148 -0.4,0.21" fill="#1c75bc" stroke="none" stroke-width="1"/><path d="M314.255,182.045h-1c-0.27614,0 -0.5,-0.22386 -0.5,-0.5c0,-0.27614 0.22386,-0.5 0.5,-0.5h1c0.27614,0 0.5,0.22386 0.5,0.5c0,0.27614 -0.22386,0.5 -0.5,0.5" fill="#1c75bc" stroke="none" stroke-width="1"/><path d="M315.87499,178.005c-0.12721,-0.00077 -0.24913,-0.05097 -0.34,-0.14l-0.72,-0.71c-0.09407,-0.09216 -0.14707,-0.21831 -0.14707,-0.35c0,-0.13169 0.053,-0.25784 0.14707,-0.35c0.19442,-0.19057 0.50558,-0.19057 0.7,0l0.72,0.71c0.18939,0.19101 0.18939,0.49899 0,0.69c-0.09028,0.09714 -0.21739,0.15162 -0.35,0.15" fill="#1c75bc" stroke="none" stroke-width="1"/><path d="M319.965,176.285c-0.12903,0.00269 -0.2537,-0.04669 -0.34589,-0.13701c-0.09219,-0.09031 -0.14414,-0.21394 -0.14411,-0.343v-1c-0.00268,-0.12996 0.04639,-0.25567 0.13642,-0.34944c0.09003,-0.09377 0.21362,-0.14794 0.34358,-0.15056v0c0.26839,0.00531 0.48469,0.22161 0.49,0.49v1c0.00545,0.13074 -0.0427,0.25803 -0.13332,0.35242c-0.09062,0.09439 -0.21584,0.1477 -0.34668,0.14758z" fill="#1c75bc" stroke="none" stroke-width="1"/><path d="M324.025,178.075c-0.12564,0.00092 -0.24703,-0.04548 -0.34,-0.13c-0.09407,-0.09216 -0.14707,-0.21831 -0.14707,-0.35c0,-0.13169 0.053,-0.25784 0.14707,-0.35l0.7,-0.73c0.19101,-0.18939 0.49899,-0.18939 0.69,0c0.19057,0.19442 0.19057,0.50558 0,0.7l-0.7,0.73c-0.09539,0.09572 -0.22486,0.14967 -0.36,0.15" fill="#1c75bc" stroke="none" stroke-width="1"/><path d="M325.715,182.065c-0.27614,0 -0.5,-0.22386 -0.5,-0.5c0,-0.27614 0.22386,-0.5 0.5,-0.5h1c0.13166,-0.0054 0.25997,0.04245 0.35593,0.13277c0.09596,0.09032 0.15149,0.21547 0.15407,0.34723c0.00567,0.27238 -0.20778,0.49916 -0.48,0.51h-1v0" fill="#1c75bc" stroke="none" stroke-width="1"/></g></g></g></svg>